<?xml version="1.0" encoding="UTF-8" standalone="no"?>
<!DOCTYPE svg PUBLIC "-//W3C//DTD SVG 1.1//EN" "http://www.w3.org/Graphics/SVG/1.1/DTD/svg11.dtd">
<svg version="1.1" xmlns="http://www.w3.org/2000/svg" xmlns:xlink="http://www.w3.org/1999/xlink" preserveAspectRatio="xMidYMid meet" viewBox="0 0 200 200" width="200" height="200"><defs><path d="M16.59 14.84C13.11 11.36 11.18 9.42 10.8 9.03C10.52 8.76 10.07 8.76 9.8 9.03C9.52 9.31 9.52 9.76 9.8 10.04C10.22 10.46 12.31 12.56 16.09 16.34L16.09 16.34C16.09 16.34 16.09 16.34 16.09 16.34C16.37 16.62 16.81 16.62 17.09 16.34C17.72 15.71 22.75 10.67 23.38 10.04C23.66 9.76 23.66 9.31 23.38 9.03C23.11 8.76 22.66 8.76 22.38 9.03C21.61 9.81 19.68 11.74 16.59 14.84Z" id="bRpobBCkT"></path></defs><g><g><g><use xlink:href="#bRpobBCkT" opacity="1" fill="#000000" fill-opacity="1"></use><g><use xlink:href="#bRpobBCkT" opacity="1" fill-opacity="0" stroke="#000000" stroke-width="1" stroke-opacity="0"></use></g></g></g></g></svg>