<svg id="coin" xmlns="http://www.w3.org/2000/svg" viewBox="0 0 22 22">
    <title>coinIcon</title>
    <circle cx="11" cy="11" r="11" fill="#fdbe39"/>
    <path d="M8.29,8a3.38,3.38,0,0,1,2,.52,2,2,0,0,1,.79,1.7,2.48,2.48,0,0,1-2.63,2.46l-.33,0-.83-.22v1.87c0,1,.09,1,1.19,1.15v.34H5.2v-.34c1-.1,1.08-.18,1.08-1.17V9.48c0-1.07-.13-1.09-1.08-1.19V8Zm-1,4a2.24,2.24,0,0,0,.88.16A1.71,1.71,0,0,0,10,10.21,1.71,1.71,0,0,0,8.13,8.36a1,1,0,0,0-.67.15c-.1.08-.14.22-.14.55Z"/>
    <path d="M15.21,8a3.36,3.36,0,0,1,2,.52,2,2,0,0,1,.8,1.7,2.49,2.49,0,0,1-2.64,2.46l-.33,0-.82-.22v1.87c0,1,.08,1,1.18,1.15v.34H12.11v-.34c1-.1,1.08-.18,1.08-1.17V9.48c0-1.07-.13-1.09-1.08-1.19V8Zm-1,4a2.14,2.14,0,0,0,.87.16,1.7,1.7,0,0,0,1.8-1.92A1.7,1.7,0,0,0,15,8.36a1,1,0,0,0-.67.15c-.1.08-.13.22-.13.55Z"/>
    <path d="M7.72,8a3.4,3.4,0,0,1,2,.52,2,2,0,0,1,.79,1.7A2.49,2.49,0,0,1,7.9,12.63l-.32,0-.83-.22v1.87c0,1,.08,1,1.19,1.15v.34H4.63v-.34c1-.1,1.08-.18,1.08-1.17V9.48c0-1.07-.13-1.09-1.08-1.19V8Zm-1,4a2.24,2.24,0,0,0,.88.16,1.71,1.71,0,0,0,1.8-1.92A1.71,1.71,0,0,0,7.55,8.36a1.11,1.11,0,0,0-.67.14c-.09.09-.13.23-.13.56Z"
          fill="#5576ff"/>
    <path d="M14.63,8a3.38,3.38,0,0,1,2,.52,2,2,0,0,1,.79,1.7,2.49,2.49,0,0,1-2.64,2.46l-.32,0-.83-.22v1.87c0,1,.09,1,1.19,1.15v.34H11.54v-.34c1-.1,1.08-.18,1.08-1.17V9.48c0-1.07-.13-1.09-1.08-1.19V8Zm-1,4a2.24,2.24,0,0,0,.88.16,1.71,1.71,0,0,0,1.8-1.92,1.71,1.71,0,0,0-1.87-1.85,1.09,1.09,0,0,0-.67.14c-.1.09-.14.23-.14.56Z"
          fill="#5576ff"/>
</svg>