<svg id="Capa_1" data-name="Capa 1" xmlns="http://www.w3.org/2000/svg" viewBox="0 0 20 20"><title>currentGameIcon</title><path d="M17.69,9.42A7.65,7.65,0,0,0,15.84,5L14.61,6.22a5.93,5.93,0,0,1,1.33,3.2H13.68A3.84,3.84,0,0,0,13,7.81,4,4,0,0,0,12.19,7a3.84,3.84,0,0,0-1.61-.67V4.06a5.93,5.93,0,0,1,3.2,1.33L15,4.16a7.65,7.65,0,0,0-4.44-1.85V0H9.42V2.31A7.65,7.65,0,0,0,5,4.16L6.22,5.39a5.93,5.93,0,0,1,3.2-1.33V6.32A3.84,3.84,0,0,0,7.81,7,4,4,0,0,0,7,7.81a3.84,3.84,0,0,0-.67,1.61H4.06a5.93,5.93,0,0,1,1.33-3.2L4.16,5A7.65,7.65,0,0,0,2.31,9.42H0v1.16H2.31A7.65,7.65,0,0,0,4.16,15l1.23-1.24a5.93,5.93,0,0,1-1.33-3.2H6.32A3.84,3.84,0,0,0,7,12.19a4,4,0,0,0,.82.82,3.84,3.84,0,0,0,1.61.67v2.26a5.93,5.93,0,0,1-3.2-1.33L5,15.84a7.65,7.65,0,0,0,4.44,1.85V20h1.16V17.69A7.65,7.65,0,0,0,15,15.84l-1.24-1.23a5.93,5.93,0,0,1-3.2,1.33V13.68A3.84,3.84,0,0,0,12.19,13a4,4,0,0,0,.82-.82,3.84,3.84,0,0,0,.67-1.61h2.26a5.93,5.93,0,0,1-1.33,3.2L15.84,15a7.65,7.65,0,0,0,1.85-4.44H20V9.42Zm-8.27,2v1.09a2.28,2.28,0,0,1-.77-.32,2.67,2.67,0,0,1-.82-.82,2.28,2.28,0,0,1-.32-.77H9.42Zm0-2.8v.82H7.51a2.28,2.28,0,0,1,.32-.77,2.67,2.67,0,0,1,.82-.82,2.28,2.28,0,0,1,.77-.32Zm2.75,2.75a2.67,2.67,0,0,1-.82.82,2.28,2.28,0,0,1-.77.32V10.58h1.91A2.28,2.28,0,0,1,12.17,11.35ZM11.4,9.42h-.82V7.51a2.28,2.28,0,0,1,.77.32,2.67,2.67,0,0,1,.82.82,2.28,2.28,0,0,1,.32.77Z"/></svg>